<?xml version="1.0" standalone="no"?>
<!DOCTYPE svg PUBLIC "-//W3C//DTD SVG 20010904//EN"
 "http://www.w3.org/TR/2001/REC-SVG-20010904/DTD/svg10.dtd">
<svg version="1.0" xmlns="http://www.w3.org/2000/svg"
 width="405.000000pt" height="405.000000pt" viewBox="0 0 405.000000 405.000000"
 preserveAspectRatio="xMidYMid meet">
<metadata>
Created by potrace 1.11, written by Peter Selinger 2001-2013
</metadata>
<g transform="translate(0.000000,405.000000) scale(0.100000,-0.100000)"
fill="#000000" stroke="none">
<path d="M1825 4044 c-233 -31 -398 -73 -578 -148 -563 -233 -1005 -729 -1170
-1311 -60 -213 -76 -345 -72 -595 4 -242 26 -387 94 -595 137 -426 427 -805
813 -1063 42 -29 79 -52 81 -52 3 0 30 -16 62 -35 167 -100 451 -193 704 -229
131 -19 474 -14 596 8 424 78 772 253 1074 541 396 377 621 906 619 1460 0
186 -10 276 -44 433 -180 811 -816 1417 -1644 1567 -90 16 -457 29 -535 19z"/>
</g>
</svg>
